<svg width="1600" height="900" viewBox="0 0 1600 900" fill="none" xmlns="http://www.w3.org/2000/svg">
  <rect width="1600" height="900" rx="28" fill="#111827"/>
  <rect x="32" y="32" width="1536" height="836" rx="22" fill="#0F172A" stroke="#334155" stroke-width="2"/>
  <rect x="72" y="72" width="1456" height="60" rx="16" fill="#111827" stroke="#334155"/>
  <circle cx="112" cy="102" r="8" fill="#F87171"/>
  <circle cx="140" cy="102" r="8" fill="#FBBF24"/>
  <circle cx="168" cy="102" r="8" fill="#34D399"/>
  <rect x="220" y="84" width="220" height="36" rx="10" fill="#1E293B"/>
  <text x="248" y="108" fill="#E2E8F0" font-family="Segoe UI, Arial, sans-serif" font-size="20" font-weight="700">Interview AI</text>

  <rect x="72" y="168" width="320" height="652" rx="20" fill="#111827" stroke="#334155"/>
  <text x="108" y="220" fill="#93C5FD" font-family="Segoe UI, Arial, sans-serif" font-size="22" font-weight="700">Resume Analysis</text>
  <rect x="108" y="252" width="248" height="16" rx="8" fill="#1E293B"/>
  <rect x="108" y="284" width="216" height="16" rx="8" fill="#1E293B"/>
  <rect x="108" y="316" width="230" height="16" rx="8" fill="#1E293B"/>
  <rect x="108" y="376" width="248" height="120" rx="18" fill="#172554" stroke="#3B82F6"/>
  <text x="132" y="424" fill="#BFDBFE" font-family="Segoe UI, Arial, sans-serif" font-size="18" font-weight="700">Role fit</text>
  <text x="132" y="458" fill="#E2E8F0" font-family="Segoe UI, Arial, sans-serif" font-size="36" font-weight="700">87%</text>
  <text x="132" y="490" fill="#93C5FD" font-family="Segoe UI, Arial, sans-serif" font-size="16">Strong backend + AI workflow match</text>
  <rect x="108" y="540" width="248" height="220" rx="18" fill="#0F172A" stroke="#334155"/>
  <text x="132" y="584" fill="#E2E8F0" font-family="Segoe UI, Arial, sans-serif" font-size="18" font-weight="700">Suggested focus</text>
  <text x="132" y="624" fill="#94A3B8" font-family="Segoe UI, Arial, sans-serif" font-size="16">• System design tradeoffs</text>
  <text x="132" y="658" fill="#94A3B8" font-family="Segoe UI, Arial, sans-serif" font-size="16">• RAG and agent orchestration</text>
  <text x="132" y="692" fill="#94A3B8" font-family="Segoe UI, Arial, sans-serif" font-size="16">• Metrics and communication</text>

  <rect x="432" y="168" width="676" height="652" rx="20" fill="#111827" stroke="#334155"/>
  <text x="472" y="220" fill="#C4B5FD" font-family="Segoe UI, Arial, sans-serif" font-size="22" font-weight="700">Live Interview</text>
  <rect x="472" y="260" width="360" height="88" rx="18" fill="#172554" stroke="#3B82F6"/>
  <text x="500" y="300" fill="#BFDBFE" font-family="Segoe UI, Arial, sans-serif" font-size="18" font-weight="700">Question 04</text>
  <text x="500" y="330" fill="#E2E8F0" font-family="Segoe UI, Arial, sans-serif" font-size="16">How would you evaluate a multi-agent interview pipeline?</text>

  <rect x="512" y="398" width="556" height="110" rx="18" fill="#1E293B"/>
  <text x="540" y="440" fill="#E2E8F0" font-family="Segoe UI, Arial, sans-serif" font-size="18" font-weight="700">Candidate answer</text>
  <text x="540" y="472" fill="#94A3B8" font-family="Segoe UI, Arial, sans-serif" font-size="16">I would measure answer quality, follow-up relevance, and report usefulness...</text>

  <rect x="472" y="548" width="180" height="44" rx="14" fill="#2563EB"/>
  <text x="515" y="576" fill="#EFF6FF" font-family="Segoe UI, Arial, sans-serif" font-size="18" font-weight="700">Streaming</text>
  <rect x="676" y="548" width="180" height="44" rx="14" fill="#1E293B" stroke="#334155"/>
  <text x="720" y="576" fill="#E2E8F0" font-family="Segoe UI, Arial, sans-serif" font-size="18" font-weight="700">Voice mode</text>
  <rect x="880" y="548" width="188" height="44" rx="14" fill="#1E293B" stroke="#334155"/>
  <text x="920" y="576" fill="#E2E8F0" font-family="Segoe UI, Arial, sans-serif" font-size="18" font-weight="700">Fallback ready</text>

  <rect x="472" y="632" width="596" height="148" rx="18" fill="#0F172A" stroke="#334155"/>
  <text x="500" y="676" fill="#E2E8F0" font-family="Segoe UI, Arial, sans-serif" font-size="18" font-weight="700">Coaching summary</text>
  <text x="500" y="712" fill="#94A3B8" font-family="Segoe UI, Arial, sans-serif" font-size="16">Clear system thinking with strong product instincts. Improve calibration details</text>
  <text x="500" y="742" fill="#94A3B8" font-family="Segoe UI, Arial, sans-serif" font-size="16">and tie tradeoffs more explicitly to reliability and user feedback loops.</text>

  <rect x="1148" y="168" width="380" height="652" rx="20" fill="#111827" stroke="#334155"/>
  <text x="1188" y="220" fill="#5EEAD4" font-family="Segoe UI, Arial, sans-serif" font-size="22" font-weight="700">System Flow</text>
  <rect x="1188" y="264" width="300" height="72" rx="18" fill="#0F172A" stroke="#334155"/>
  <text x="1220" y="308" fill="#E2E8F0" font-family="Segoe UI, Arial, sans-serif" font-size="18" font-weight="700">Resume parsing</text>
  <rect x="1328" y="340" width="8" height="42" rx="4" fill="#2563EB"/>
  <rect x="1188" y="392" width="300" height="72" rx="18" fill="#0F172A" stroke="#334155"/>
  <text x="1220" y="436" fill="#E2E8F0" font-family="Segoe UI, Arial, sans-serif" font-size="18" font-weight="700">Adaptive interview</text>
  <rect x="1328" y="468" width="8" height="42" rx="4" fill="#2563EB"/>
  <rect x="1188" y="520" width="300" height="72" rx="18" fill="#0F172A" stroke="#334155"/>
  <text x="1220" y="564" fill="#E2E8F0" font-family="Segoe UI, Arial, sans-serif" font-size="18" font-weight="700">Evaluation + report</text>
  <rect x="1188" y="646" width="300" height="126" rx="18" fill="#172554" stroke="#3B82F6"/>
  <text x="1220" y="694" fill="#BFDBFE" font-family="Segoe UI, Arial, sans-serif" font-size="18" font-weight="700">Outcome</text>
  <text x="1220" y="730" fill="#E2E8F0" font-family="Segoe UI, Arial, sans-serif" font-size="28" font-weight="700">Practice + coaching</text>
</svg>
